HIERARCHY
ROOT hip
{
  OFFSET 0 90.174 2.4664
  CHANNELS 6 Xposition Yposition Zposition Zrotation Xrotation Yrotation
  JOINT abdomen
  {
    OFFSET 0 -1.186 -1.5018
    CHANNELS 6 Xposition Yposition Zposition Zrotation Xrotation Yrotation
    JOINT abdomen2
    {
      OFFSET 0 9.964 0.2134
      CHANNELS 6 Xposition Yposition Zposition Zrotation Xrotation Yrotation
      JOINT chest
      {
        OFFSET 0 13.134 -3.2573
        CHANNELS 6 Xposition Yposition Zposition Zrotation Xrotation Yrotation
        JOINT neck
        {
          OFFSET 0 20.686 -1.6905
          CHANNELS 6 Xposition Yposition Zposition Zrotation Xrotation Yrotation
          JOINT head
          {
            OFFSET 0 7.238 -0.1237
            CHANNELS 6 Xposition Yposition Zposition Zrotation Xrotation Yrotation
            End Site
            {
              OFFSET 0 0 0
            }
          }
        }
        JOINT lCollar
        {
          OFFSET 1.7069 20.075 5.0056
          CHANNELS 6 Xposition Yposition Zposition Zrotation Xrotation Yrotation
          JOINT lShldr
          {
            OFFSET 13.6458 -0.047 -4.849
            CHANNELS 6 Xposition Yposition Zposition Zrotation Xrotation Yrotation
            JOINT lForeArm
            {
              OFFSET 28.3255 -0.9759 2.2888
              CHANNELS 6 Xposition Yposition Zposition Zrotation Xrotation Yrotation
              JOINT lHand
              {
                OFFSET 22.1583 -0.53 10.8316
                CHANNELS 6 Xposition Yposition Zposition Zrotation Xrotation Yrotation
                JOINT lThumb1
                {
                  OFFSET 0.786 0.112 2.5817
                  CHANNELS 6 Xposition Yposition Zposition Zrotation Xrotation Yrotation
                  JOINT lThumb2
                  {
                    OFFSET 0.3601 -0.878 4.2331
                    CHANNELS 6 Xposition Yposition Zposition Zrotation Xrotation Yrotation
                    JOINT lThumb2_End
                    {
                      OFFSET 1.8127 -1.216 2.2227
                      CHANNELS 6 Xposition Yposition Zposition Zrotation Xrotation Yrotation
                      End Site
                      {
                        OFFSET 0.0181 -0.0122 0.0222
                      }
                    }
                  }
                }
                JOINT lCarpal1
                {
                  OFFSET 0.9571 1.114 1.7695
                  CHANNELS 6 Xposition Yposition Zposition Zrotation Xrotation Yrotation
                  JOINT lIndex1
                  {
                    OFFSET 4.1246 0.487 4.1451
                    CHANNELS 6 Xposition Yposition Zposition Zrotation Xrotation Yrotation
                    JOINT lIndex2
                    {
                      OFFSET 3.4052 -1.454 2.7682
                      CHANNELS 6 Xposition Yposition Zposition Zrotation Xrotation Yrotation
                      JOINT lIndex2_End
                      {
                        OFFSET 1.4531 -1.795 1.2713
                        CHANNELS 6 Xposition Yposition Zposition Zrotation Xrotation Yrotation
                        End Site
                        {
                          OFFSET 0.0145 -0.0179 0.0127
                        }
                      }
                    }
                  }
                  JOINT lMid1
                  {
                    OFFSET 5.6954 0.21 2.1184
                    CHANNELS 6 Xposition Yposition Zposition Zrotation Xrotation Yrotation
                    JOINT lMid2
                    {
                      OFFSET 3.9766 -1.54 2.3863
                      CHANNELS 6 Xposition Yposition Zposition Zrotation Xrotation Yrotation
                      JOINT lMid2_End
                      {
                        OFFSET 1.4042 -1.926 1.125
                        CHANNELS 6 Xposition Yposition Zposition Zrotation Xrotation Yrotation
                        End Site
                        {
                          OFFSET 0.014 -0.0193 0.0113
                        }
                      }
                    }
                  }
                }
                JOINT lCarpal2
                {
                  OFFSET 2.0956 0.66 -0.3894
                  CHANNELS 6 Xposition Yposition Zposition Zrotation Xrotation Yrotation
                  JOINT lRing1
                  {
                    OFFSET 5.0395 -0.09 2.4971
                    CHANNELS 6 Xposition Yposition Zposition Zrotation Xrotation Yrotation
                    JOINT lRing2
                    {
                      OFFSET 3.7921 -1.552 1.4806
                      CHANNELS 6 Xposition Yposition Zposition Zrotation Xrotation Yrotation
                      JOINT lRing2_End
                      {
                        OFFSET 1.4655 -1.808 0.9609
                        CHANNELS 6 Xposition Yposition Zposition Zrotation Xrotation Yrotation
                        End Site
                        {
                          OFFSET 0.0147 -0.0181 0.0096
                        }
                      }
                    }
                  }
                  JOINT lPinky1
                  {
                    OFFSET 4.9141 -1.269 0.3591
                    CHANNELS 6 Xposition Yposition Zposition Zrotation Xrotation Yrotation
                    JOINT lPinky2
                    {
                      OFFSET 3.1477 -1.685 0.8462
                      CHANNELS 6 Xposition Yposition Zposition Zrotation Xrotation Yrotation
                      JOINT lPinky2_End
                      {
                        OFFSET 0.8055 -1.585 0.7955
                        CHANNELS 6 Xposition Yposition Zposition Zrotation Xrotation Yrotation
                        End Site
                        {
                          OFFSET 0.0081 -0.0158 0.008
                        }
                      }
                    }
                  }
                }
              }
            }
          }
        }
        JOINT rCollar
        {
          OFFSET -1.7069 20.075 5.0056
          CHANNELS 6 Xposition Yposition Zposition Zrotation Xrotation Yrotation
          JOINT rShldr
          {
            OFFSET -13.6458 -0.047 -4.849
            CHANNELS 6 Xposition Yposition Zposition Zrotation Xrotation Yrotation
            JOINT rForeArm
            {
              OFFSET -28.3255 -0.9759 2.2888
              CHANNELS 6 Xposition Yposition Zposition Zrotation Xrotation Yrotation
              JOINT rHand
              {
                OFFSET -22.1583 -0.53 10.8316
                CHANNELS 6 Xposition Yposition Zposition Zrotation Xrotation Yrotation
                JOINT rThumb1
                {
                  OFFSET -0.786 0.112 2.5817
                  CHANNELS 6 Xposition Yposition Zposition Zrotation Xrotation Yrotation
                  JOINT rThumb2
                  {
                    OFFSET -0.3601 -0.878 4.2331
                    CHANNELS 6 Xposition Yposition Zposition Zrotation Xrotation Yrotation
                    JOINT rThumb2_End
                    {
                      OFFSET -1.8127 -1.216 2.2227
                      CHANNELS 6 Xposition Yposition Zposition Zrotation Xrotation Yrotation
                      End Site
                      {
                        OFFSET -0.0181 -0.0122 0.0222
                      }
                    }
                  }
                }
                JOINT rCarpal1
                {
                  OFFSET -0.9571 1.114 1.7695
                  CHANNELS 6 Xposition Yposition Zposition Zrotation Xrotation Yrotation
                  JOINT rIndex1
                  {
                    OFFSET -4.1246 0.487 4.1451
                    CHANNELS 6 Xposition Yposition Zposition Zrotation Xrotation Yrotation
                    JOINT rIndex2
                    {
                      OFFSET -3.4052 -1.454 2.7682
                      CHANNELS 6 Xposition Yposition Zposition Zrotation Xrotation Yrotation
                      JOINT rIndex2_End
                      {
                        OFFSET -1.4531 -1.795 1.2713
                        CHANNELS 6 Xposition Yposition Zposition Zrotation Xrotation Yrotation
                        End Site
                        {
                          OFFSET -0.0145 -0.018 0.0127
                        }
                      }
                    }
                  }
                  JOINT rMid1
                  {
                    OFFSET -5.6954 0.21 2.1184
                    CHANNELS 6 Xposition Yposition Zposition Zrotation Xrotation Yrotation
                    JOINT rMid2
                    {
                      OFFSET -3.9766 -1.54 2.3863
                      CHANNELS 6 Xposition Yposition Zposition Zrotation Xrotation Yrotation
                      JOINT rMid2_End
                      {
                        OFFSET -1.4042 -1.926 1.125
                        CHANNELS 6 Xposition Yposition Zposition Zrotation Xrotation Yrotation
                        End Site
                        {
                          OFFSET -0.014 -0.0193 0.0113
                        }
                      }
                    }
                  }
                }
                JOINT rCarpal2
                {
                  OFFSET -2.0956 0.66 -0.3894
                  CHANNELS 6 Xposition Yposition Zposition Zrotation Xrotation Yrotation
                  JOINT rRing1
                  {
                    OFFSET -5.0395 -0.09 2.4971
                    CHANNELS 6 Xposition Yposition Zposition Zrotation Xrotation Yrotation
                    JOINT rRing2
                    {
                      OFFSET -3.7921 -1.552 1.4806
                      CHANNELS 6 Xposition Yposition Zposition Zrotation Xrotation Yrotation
                      JOINT rRing2_End
                      {
                        OFFSET -1.4655 -1.808 0.9609
                        CHANNELS 6 Xposition Yposition Zposition Zrotation Xrotation Yrotation
                        End Site
                        {
                          OFFSET -0.0147 -0.0181 0.0096
                        }
                      }
                    }
                  }
                  JOINT rPinky1
                  {
                    OFFSET -4.9141 -1.269 0.3592
                    CHANNELS 6 Xposition Yposition Zposition Zrotation Xrotation Yrotation
                    JOINT rPinky2
                    {
                      OFFSET -3.1477 -1.685 0.8462
                      CHANNELS 6 Xposition Yposition Zposition Zrotation Xrotation Yrotation
                      JOINT rPinky2_End
                      {
                        OFFSET -0.8055 -1.585 0.7955
                        CHANNELS 6 Xposition Yposition Zposition Zrotation Xrotation Yrotation
                        End Site
                        {
                          OFFSET -0.0081 -0.0158 0.008
                        }
                      }
                    }
                  }
                }
              }
            }
          }
        }
      }
    }
  }
  JOINT lThigh
  {
    OFFSET 8.367 -8.2066 0.5982
    CHANNELS 6 Xposition Yposition Zposition Zrotation Xrotation Yrotation
    JOINT lShin
    {
      OFFSET 2.1923 -43.463 -0.4932
      CHANNELS 6 Xposition Yposition Zposition Zrotation Xrotation Yrotation
      JOINT lFoot
      {
        OFFSET 0.7333 -45.8593 -2.6451
        CHANNELS 6 Xposition Yposition Zposition Zrotation Xrotation Yrotation
        End Site
        {
          OFFSET 2.6618 -4.2699 12.3931
        }
      }
    }
  }
  JOINT rThigh
  {
    OFFSET -8.367 -8.2066 0.5982
    CHANNELS 6 Xposition Yposition Zposition Zrotation Xrotation Yrotation
    JOINT rShin
    {
      OFFSET -2.1923 -43.463 -0.4931
      CHANNELS 6 Xposition Yposition Zposition Zrotation Xrotation Yrotation
      JOINT rFoot
      {
        OFFSET -0.7333 -45.8593 -2.6451
        CHANNELS 6 Xposition Yposition Zposition Zrotation Xrotation Yrotation
        End Site
        {
          OFFSET -2.6618 -4.2699 12.3931
        }
      }
    }
  }
}
MOTION
Frames:	4
Frame Time:	0.0333333
-50.501 4.7036 -3.38901 -90 1.98785e-016 3.50023 0 -1.186 -1.5018 0.0552959 -1.85893 -0.250221 0 9.964 0.2134 0.102505 -3.71808 -0.499042 0 13.134 -3.2573 0.102526 -3.71808 -0.499041 8.88178e-016 20.686 -1.6905 -3.92955e-005 18.3859 3.73749e-006 0 7.238 -0.1237 3.64085e-006 -33.9054 1.14863e-006 1.7069 20.075 5.0056 -17.054 1.39308 27.7657 13.6458 -0.047 -4.849 0.416618 -1.62063 -74.3506 28.3255 -0.9759 2.2888 -21.6073 -0.411365 -53.4105 22.1583 -0.53 10.8316 -35.424 -39.7902 -12.3778 0.786 0.112 2.5817 -9.54166e-015 2.38542e-015 -4.77083e-015 0.3601 -0.878 4.2331 -3.18055e-015 2.38542e-015 -3.18055e-015 1.8127 -1.216 2.2227 9.54166e-015 3.18055e-015 -1.59028e-015 0.9571 1.114 1.7695 -9.54166e-015 -7.95139e-016 -4.77083e-015 4.1246 0.487 4.1451 7.72434e-032 7.95139e-016 -5.56597e-015 3.4052 -1.454 2.7682 -6.36111e-015 7.95139e-016 -3.97569e-015 1.4531 -1.795 1.2713 -1.27222e-014 7.95139e-016 -1.59028e-015 5.6954 0.21 2.1184 7.72434e-032 7.95139e-016 -5.56597e-015 3.9766 -1.54 2.3863 -6.36111e-015 7.95139e-016 -3.97569e-015 1.4042 -1.926 1.125 -1.27222e-014 7.95139e-016 -1.59028e-015 2.0956 0.66 -0.3894 -9.54166e-015 -7.95139e-016 -4.77083e-015 5.0395 -0.09 2.4971 7.72434e-032 7.95139e-016 -5.56597e-015 3.7921 -1.552 1.4806 -6.36111e-015 7.95139e-016 -3.97569e-015 1.4655 -1.808 0.9609 -1.27222e-014 7.95139e-016 -1.59028e-015 4.9141 -1.269 0.3591 7.72434e-032 7.95139e-016 -5.56597e-015 3.1477 -1.685 0.8462 -6.36111e-015 7.95139e-016 -3.97569e-015 0.8055 -1.585 0.7955 -1.27222e-014 7.95139e-016 -1.59028e-015 -1.7069 20.075 5.0056 15.9847 -1.64478 -32.0961 -13.6458 -0.047 -4.849 -0.591075 -1.54365 73.0713 -28.3255 -0.9759 2.2888 19.1568 -4.59411 44.5665 -22.1583 -0.53 10.8316 49.0893 -30.5803 22.0721 -0.786 0.112 2.5817 9.54166e-015 7.15625e-015 -1.59028e-015 -0.3601 -0.878 4.2331 3.18055e-015 4.37326e-015 7.95139e-016 -1.8127 -1.216 2.2227 6.36111e-015 -1.19271e-015 5.56597e-015 -0.9571 1.114 1.7695 1.76556e-031 3.18055e-015 -3.18055e-015 -4.1246 0.487 4.1451 9.54166e-015 -2.38542e-015 1.27222e-014 -3.4052 -1.454 2.7682 6.36111e-015 1.19271e-015 1.59028e-015 -1.4531 -1.795 1.2713 6.56569e-031 6.75868e-015 -5.56597e-015 -5.6954 0.21 2.1184 9.54166e-015 -2.38542e-015 1.27222e-014 -3.9766 -1.54 2.3863 6.36111e-015 1.19271e-015 1.59028e-015 -1.4042 -1.926 1.125 6.56569e-031 6.75868e-015 -5.56597e-015 -2.0956 0.66 -0.3894 1.76556e-031 3.18055e-015 -3.18055e-015 -5.0395 -0.09 2.4971 9.54166e-015 -2.38542e-015 1.27222e-014 -3.7921 -1.552 1.4806 6.36111e-015 1.19271e-015 1.59028e-015 -1.4655 -1.808 0.9609 6.56569e-031 6.75868e-015 -5.56597e-015 -4.9141 -1.269 0.3592 9.54166e-015 -2.38542e-015 1.27222e-014 -3.1477 -1.685 0.8462 6.36111e-015 1.19271e-015 1.59028e-015 -0.8055 -1.585 0.7955 6.56569e-031 6.75868e-015 -5.56597e-015 8.367 -8.2066 0.5982 -148.745 -86.6187 -157.716 2.1923 -43.463 -0.4932 -54.8124 74.0375 68.9879 0.7333 -45.8593 -2.6451 23.1726 25.5085 -28.9433 -8.367 -8.2066 0.5982 -103.146 -16.7477 -74.0663 -2.1923 -43.463 -0.4931 99.1486 7.70791 -78.2959 -0.7333 -45.8593 -2.6451 -10.4658 50.5488 31.5901 
-49.9367 5.10217 -4.43151 -90 1.98785e-016 3.50023 -1.77636e-015 -1.186 -1.5018 0.0538304 -1.57677 -0.251032 8.88178e-016 9.964 0.2134 0.100817 -3.15378 -0.50087 1.77636e-015 13.134 -3.2573 0.100788 -3.15378 -0.500872 -8.88178e-016 20.686 -1.6905 -7.87134e-005 21.7474 1.66583e-005 0 7.238 -0.1237 6.04188e-007 -38.5335 -3.5345e-006 1.7069 20.075 5.0056 -16.9429 0.979232 25.7707 13.6458 -0.047 -4.849 0.459342 -1.53439 -73.7029 28.3255 -0.9759 2.2888 -21.1822 -1.52336 -50.2472 22.1583 -0.53 10.8316 -36.9028 -38.1533 -14.8749 0.786 0.112 2.5817 6.36111e-015 -4.77083e-015 -3.97569e-015 0.3601 -0.878 4.2331 2.20695e-032 -1.59028e-015 7.95139e-016 1.8127 -1.216 2.2227 -2.5172e-006 -1.97497e-006 -1.12439e-006 0.9571 1.114 1.7695 6.36111e-015 -3.18055e-015 -3.97569e-015 4.1246 0.487 4.1451 1.10348e-032 -7.95139e-016 7.95139e-016 3.4052 -1.454 2.7682 -3.31043e-032 -2.38542e-015 -7.95139e-016 1.4531 -1.795 1.2713 -2.5172e-006 -1.97497e-006 -1.12439e-006 5.6954 0.21 2.1184 1.10348e-032 -7.95139e-016 7.95139e-016 3.9766 -1.54 2.3863 -3.31043e-032 -2.38542e-015 -7.95139e-016 1.4042 -1.926 1.125 -2.5172e-006 -1.97497e-006 -1.12439e-006 2.0956 0.66 -0.3894 6.36111e-015 -3.18055e-015 -3.97569e-015 5.0395 -0.09 2.4971 1.10348e-032 -7.95139e-016 7.95139e-016 3.7921 -1.552 1.4806 -3.31043e-032 -2.38542e-015 -7.95139e-016 1.4655 -1.808 0.9609 -2.5172e-006 -1.97497e-006 -1.12439e-006 4.9141 -1.269 0.3591 1.10348e-032 -7.95139e-016 7.95139e-016 3.1477 -1.685 0.8462 -3.31043e-032 -2.38542e-015 -7.95139e-016 0.8055 -1.585 0.7955 -2.5172e-006 -1.97497e-006 -1.12439e-006 -1.7069 20.075 5.0056 16.0197 -1.78206 -29.6852 -13.6458 -0.047 -4.849 -0.608282 -1.44441 72.6207 -28.3255 -0.9759 2.2888 18.6641 -5.33821 42.0994 -22.1583 -0.53 10.8316 48.8552 -29.7123 23.1758 -0.786 0.112 2.5817 -3.5655e-006 1.85972e-006 3.19561e-006 -0.3601 -0.878 4.2331 3.18055e-015 -2.38542e-015 3.97569e-015 -1.8127 -1.216 2.2227 9.54166e-015 -7.95139e-016 -0 -0.9571 1.114 1.7695 -3.18055e-015 2.38542e-015 3.18055e-015 -4.1246 0.487 4.1451 -3.5655e-006 1.85972e-006 3.19561e-006 -3.4052 -1.454 2.7682 2.3173e-031 -5.56597e-015 2.38542e-015 -1.4531 -1.795 1.2713 6.36111e-015 -2.78299e-015 7.95139e-016 -5.6954 0.21 2.1184 -3.5655e-006 1.85972e-006 3.19561e-006 -3.9766 -1.54 2.3863 2.3173e-031 -5.56597e-015 2.38542e-015 -1.4042 -1.926 1.125 6.36111e-015 -2.78299e-015 7.95139e-016 -2.0956 0.66 -0.3894 -3.18055e-015 2.38542e-015 3.18055e-015 -5.0395 -0.09 2.4971 -3.5655e-006 1.85972e-006 3.19561e-006 -3.7921 -1.552 1.4806 2.3173e-031 -5.56597e-015 2.38542e-015 -1.4655 -1.808 0.9609 6.36111e-015 -2.78299e-015 7.95139e-016 -4.9141 -1.269 0.3592 -3.5655e-006 1.85972e-006 3.19561e-006 -3.1477 -1.685 0.8462 2.3173e-031 -5.56597e-015 2.38542e-015 -0.8055 -1.585 0.7955 6.36111e-015 -2.78299e-015 7.95139e-016 8.367 -8.2066 0.5982 -137.783 -87.6799 -147.099 2.1923 -43.463 -0.4932 -48.1973 72.2625 62.6466 0.7333 -45.8593 -2.6451 23.6799 26.7498 -29.7392 -8.367 -8.2066 0.5982 -102.283 -18.0292 -73.4001 -2.1923 -43.463 -0.4931 97.9499 3.92123 -78.5488 -0.7333 -45.8593 -2.6451 -11.2149 50.1523 32.9583 
-49.4049 5.46431 -5.43839 -90 1.98785e-016 3.50023 0 -1.186 -1.5018 0.0524485 -1.31024 -0.251768 -1.77636e-015 9.964 0.2134 0.0991867 -2.62073 -0.502543 8.88178e-016 13.134 -3.2573 0.0991633 -2.62073 -0.502543 -8.88178e-016 20.686 -1.6905 -5.34276e-005 24.9404 1.01206e-005 0 7.238 -0.1237 4.88296e-006 -42.9588 1.06985e-006 1.7069 20.075 5.0056 -16.8508 0.584787 23.8845 13.6458 -0.047 -4.849 0.49878 -1.45277 -73.0917 28.3255 -0.9759 2.2888 -20.7226 -2.54909 -47.2307 22.1583 -0.53 10.8316 -38.191 -36.5585 -17.1404 0.786 0.112 2.5817 -6.36111e-015 1.59028e-015 1.59028e-015 0.3601 -0.878 4.2331 3.18055e-015 1.59028e-015 -1.59028e-015 1.8127 -1.216 2.2227 -3.18055e-015 -3.18055e-015 -7.95139e-016 0.9571 1.114 1.7695 -6.36111e-015 1.59028e-015 1.59028e-015 4.1246 0.487 4.1451 3.18055e-015 1.59028e-015 -1.59028e-015 3.4052 -1.454 2.7682 -3.18055e-015 -3.18055e-015 -7.95139e-016 1.4531 -1.795 1.2713 2.20695e-032 -7.95139e-016 1.59028e-015 5.6954 0.21 2.1184 3.18055e-015 1.59028e-015 -1.59028e-015 3.9766 -1.54 2.3863 -3.18055e-015 -3.18055e-015 -7.95139e-016 1.4042 -1.926 1.125 2.20695e-032 -7.95139e-016 1.59028e-015 2.0956 0.66 -0.3894 -6.36111e-015 1.59028e-015 1.59028e-015 5.0395 -0.09 2.4971 3.18055e-015 1.59028e-015 -1.59028e-015 3.7921 -1.552 1.4806 -3.18055e-015 -3.18055e-015 -7.95139e-016 1.4655 -1.808 0.9609 2.20695e-032 -7.95139e-016 1.59028e-015 4.9141 -1.269 0.3591 3.18055e-015 1.59028e-015 -1.59028e-015 3.1477 -1.685 0.8462 -3.18055e-015 -3.18055e-015 -7.95139e-016 0.8055 -1.585 0.7955 2.20695e-032 -7.95139e-016 1.59028e-015 -1.7069 20.075 5.0056 16.0581 -1.91044 -27.4021 -13.6458 -0.047 -4.849 -0.623824 -1.35079 72.1954 -28.3255 -0.9759 2.2888 18.1679 -6.02087 39.7529 -22.1583 -0.53 10.8316 48.6187 -28.8958 24.2139 -0.786 0.112 2.5817 -6.36111e-015 2.38542e-015 -3.97569e-015 -0.3601 -0.878 4.2331 -6.36111e-015 1.19271e-015 -5.56597e-015 -1.8127 -1.216 2.2227 -1.59028e-014 1.19271e-015 -3.18055e-015 -0.9571 1.114 1.7695 6.36111e-015 0 -0 -4.1246 0.487 4.1451 -6.36111e-015 -7.15625e-015 9.54166e-015 -3.4052 -1.454 2.7682 -3.18055e-015 -1.19271e-015 -7.95139e-015 -1.4531 -1.795 1.2713 -1.27222e-014 1.98785e-015 -4.77083e-015 -5.6954 0.21 2.1184 -6.36111e-015 -7.15625e-015 9.54166e-015 -3.9766 -1.54 2.3863 -3.18055e-015 -1.19271e-015 -7.95139e-015 -1.4042 -1.926 1.125 -1.27222e-014 1.98785e-015 -4.77083e-015 -2.0956 0.66 -0.3894 6.36111e-015 0 -0 -5.0395 -0.09 2.4971 -6.36111e-015 -7.15625e-015 9.54166e-015 -3.7921 -1.552 1.4806 -3.18055e-015 -1.19271e-015 -7.95139e-015 -1.4655 -1.808 0.9609 -1.27222e-014 1.98785e-015 -4.77083e-015 -4.9141 -1.269 0.3592 -6.36111e-015 -7.15625e-015 9.54166e-015 -3.1477 -1.685 0.8462 -3.18055e-015 -1.19271e-015 -7.95139e-015 -0.8055 -1.585 0.7955 -1.27222e-014 1.98785e-015 -4.77083e-015 8.367 -8.2066 0.5982 -113.766 -88.4921 -123.395 2.1923 -43.463 -0.4932 -42.9842 70.3902 57.7086 0.7333 -45.8593 -2.6451 24.2055 27.9399 -30.5224 -8.367 -8.2066 0.5982 -101.439 -19.397 -72.8584 -2.1923 -43.463 -0.4931 95.8893 1.35824 -78.9276 -0.7333 -45.8593 -2.6451 -11.9949 49.7167 34.2386 
-48.8756 5.82384 -6.44907 -90 1.98785e-016 3.50023 0 -1.186 -1.5018 0.0510689 -1.04347 -0.25248 0 9.964 0.2134 0.0975764 -2.08719 -0.504156 0 13.134 -3.2573 0.0975602 -2.08719 -0.504155 -8.88178e-016 20.686 -1.6905 -4.00291e-005 28.1493 4.48248e-005 0 7.238 -0.1237 -1.8748e-006 -47.4267 -3.79322e-006 1.7069 20.075 5.0056 -16.7716 0.186758 21.9956 13.6458 -0.047 -4.849 0.537338 -1.37074 -72.4805 28.3255 -0.9759 2.2888 -20.2066 -3.55317 -44.188 22.1583 -0.53 10.8316 -39.3786 -34.9207 -19.3221 0.786 0.112 2.5817 -1.25876e-006 -9.87793e-007 -5.60748e-007 0.3601 -0.878 4.2331 9.54166e-015 -7.95139e-016 -7.95139e-016 1.8127 -1.216 2.2227 -1.25876e-006 -9.87793e-007 -5.60748e-007 0.9571 1.114 1.7695 -6.62086e-032 2.38542e-015 1.59028e-015 4.1246 0.487 4.1451 -1.25876e-006 -9.87793e-007 -5.60748e-007 3.4052 -1.454 2.7682 3.18055e-015 6.36111e-015 4.77083e-015 1.4531 -1.795 1.2713 -1.25876e-006 -9.87793e-007 -5.60748e-007 5.6954 0.21 2.1184 -1.25876e-006 -9.87793e-007 -5.60748e-007 3.9766 -1.54 2.3863 3.18055e-015 6.36111e-015 4.77083e-015 1.4042 -1.926 1.125 -1.25876e-006 -9.87793e-007 -5.60748e-007 2.0956 0.66 -0.3894 -6.62086e-032 2.38542e-015 1.59028e-015 5.0395 -0.09 2.4971 -1.25876e-006 -9.87793e-007 -5.60748e-007 3.7921 -1.552 1.4806 3.18055e-015 6.36111e-015 4.77083e-015 1.4655 -1.808 0.9609 -1.25876e-006 -9.87793e-007 -5.60748e-007 4.9141 -1.269 0.3591 -1.25876e-006 -9.87793e-007 -5.60748e-007 3.1477 -1.685 0.8462 3.18055e-015 6.36111e-015 4.77083e-015 0.8055 -1.585 0.7955 -1.25876e-006 -9.87793e-007 -5.60748e-007 -1.7069 20.075 5.0056 16.1017 -2.03758 -25.113 -13.6458 -0.047 -4.849 -0.638672 -1.25708 71.7702 -28.3255 -0.9759 2.2888 17.6418 -6.68439 37.3907 -22.1583 -0.53 10.8316 48.3671 -28.0825 25.2489 -0.786 0.112 2.5817 -6.36111e-015 2.78299e-015 -3.97569e-015 -0.3601 -0.878 4.2331 -3.18055e-015 3.97569e-016 -0 -1.8127 -1.216 2.2227 3.18055e-015 1.59028e-015 -7.95139e-016 -0.9571 1.114 1.7695 -6.36111e-015 2.78299e-015 -7.95139e-016 -4.1246 0.487 4.1451 -6.36111e-015 -8.34896e-015 8.74653e-015 -3.4052 -1.454 2.7682 -3.18055e-015 0 -6.36111e-015 -1.4531 -1.795 1.2713 -6.36111e-015 1.59028e-015 -4.77083e-015 -5.6954 0.21 2.1184 -6.36111e-015 -8.34896e-015 8.74653e-015 -3.9766 -1.54 2.3863 -3.18055e-015 0 -6.36111e-015 -1.4042 -1.926 1.125 -6.36111e-015 1.59028e-015 -4.77083e-015 -2.0956 0.66 -0.3894 -6.36111e-015 2.78299e-015 -7.95139e-016 -5.0395 -0.09 2.4971 -6.36111e-015 -8.34896e-015 8.74653e-015 -3.7921 -1.552 1.4806 -3.18055e-015 0 -6.36111e-015 -1.4655 -1.808 0.9609 -6.36111e-015 1.59028e-015 -4.77083e-015 -4.9141 -1.269 0.3592 -6.36111e-015 -8.34896e-015 8.74653e-015 -3.1477 -1.685 0.8462 -3.18055e-015 0 -6.36111e-015 -0.8055 -1.585 0.7955 -6.36111e-015 1.59028e-015 -4.77083e-015 8.367 -8.2066 0.5982 -67.3048 -88.7007 -77.2427 2.1923 -43.463 -0.4932 -38.6513 68.3853 53.6588 0.7333 -45.8593 -2.6451 24.7629 29.1281 -31.3308 -8.367 -8.2066 0.5982 -100.611 -20.8193 -72.3926 -2.1923 -43.463 -0.4931 93.5465 -0.520862 -80.0552 -0.7333 -45.8593 -2.6451 -13.4098 49.1581 36.345 
